<?xml version="1.0" encoding="utf-8"?>
<!-- Generator: Adobe Illustrator 22.0.0, SVG Export Plug-In . SVG Version: 6.00 Build 0)  -->
<svg version="1.1" id="Layer_1" xmlns="http://www.w3.org/2000/svg" xmlns:xlink="http://www.w3.org/1999/xlink" x="0px" y="0px"
	 viewBox="0 0 1440 947" style="enable-background:new 0 0 1440 947;" xml:space="preserve">
<style type="text/css">
	.st0{fill:#FCF6EC;}
</style>
<g>
	
		<image style="overflow:visible;opacity:0.6;" width="2336" height="1083" xlink:href="B81A810B.png"  transform="matrix(1 0 0 1 -465 -76)">
	</image>
	<g>
		<g>
			<path class="st0" d="M1722.7,470.9c82,118.7,65.2,259.4-155.9,349c-224.8,91.1-592.3,87.1-921.6,87.7
				c-331.7,0.6-732.8,16.6-931.2-84.1c-193.5-98.2,34.6-230.9,70.8-352.7c29.2-98-37.5-202,117.9-281.2
				C78.5,100.1,353.9,14.8,645.2,32.3c281,16.9,345.6,155.5,539.4,234.4C1364.4,339.9,1655.9,374.2,1722.7,470.9z"/>
		</g>
	</g>
</g>
</svg>
