<?xml version="1.0" encoding="utf-8"?>
<!-- Generator: Adobe Illustrator 23.0.1, SVG Export Plug-In . SVG Version: 6.00 Build 0)  -->
<svg version="1.1" id="Layer_1" xmlns="http://www.w3.org/2000/svg" xmlns:xlink="http://www.w3.org/1999/xlink" x="0px" y="0px"
	 viewBox="0 0 143 24" style="enable-background:new 0 0 143 24;" xml:space="preserve">
<style type="text/css">
	.st0{fill:#504F50;}
</style>
<path class="st0" d="M8.8,24c-2.7,0-4.9-0.8-6.4-2.5C0.8,19.9,0,17.7,0,14.9c0-2.1,0.4-4,1.3-5.6c0.9-1.6,2-2.9,3.5-3.8
	c1.5-0.9,3.1-1.4,4.9-1.4c1.1,0,2.2,0.2,3.3,0.6c1.1,0.4,1.9,0.9,2.4,1.5c0.4,0.5,0.7,1,0.7,1.3c0,0.4-0.2,0.7-0.5,1l-1.6,1.3h-0.3
	L12.2,8c-0.4-0.6-1-1-1.6-1.3C10,6.2,9.2,6.1,8.3,6.1c-1.5,0-2.8,0.6-3.7,1.9C3.8,9.1,3.3,10.8,3.3,13c0,1.3,0.2,2.6,0.7,3.8
	C4.4,18,5.2,19,6.2,19.7c1.1,0.7,2.5,1.1,4.4,1.1c1.5,0,3.3-0.6,5.4-1.7c0,0,0.1,0,0.1,0c0,0,0.1,0,0.1,0.1v0.1c0,0.2,0,0.3-0.1,0.4
	c-0.6,1.1-1.6,2.1-2.8,2.9C12,23.6,10.5,24,8.8,24z"/>
<path class="st0" d="M29.4,24c-1.9,0-3.5-0.4-4.9-1.3c-1.4-0.9-2.5-2-3.2-3.5c-0.8-1.5-1.1-3.2-1.1-5.1s0.4-3.6,1.1-5.1
	c0.8-1.5,1.9-2.7,3.2-3.5c1.4-0.9,3-1.3,4.9-1.3s3.5,0.4,4.8,1.3c1.4,0.9,2.5,2,3.2,3.5c0.8,1.5,1.2,3.2,1.2,5.1s-0.4,3.6-1.2,5.1
	c-0.8,1.5-1.8,2.7-3.2,3.5C32.9,23.6,31.3,24,29.4,24z M30,22.2c1.1,0,2-0.4,2.8-1.1c0.7-0.7,1.3-1.6,1.6-2.7
	c0.3-1.1,0.5-2.3,0.5-3.5c0-1.5-0.2-2.9-0.6-4.3c-0.4-1.4-1-2.5-1.9-3.4c-0.9-0.9-2-1.3-3.4-1.3c-1.2,0-2.1,0.4-2.8,1.1
	c-0.7,0.7-1.3,1.6-1.6,2.7c-0.3,1.1-0.5,2.3-0.5,3.5c0,1.5,0.2,2.9,0.6,4.3c0.4,1.4,1.1,2.5,2,3.4C27.4,21.8,28.6,22.2,30,22.2z"/>
<path class="st0" d="M42.8,23.6v-0.7l2.7-1.3V9L43,6.9c-0.1-0.1-0.1-0.1-0.1-0.2c0-0.1,0.1-0.2,0.2-0.2l5-2.2c0,0,0.1,0,0.1,0
	c0.1,0,0.2,0.1,0.2,0.2l0.4,2.9H49c1.1-1.1,2.1-1.9,3.1-2.4c1-0.5,2.1-0.8,3.3-0.8c1.7,0,3,0.4,4,1.3c1.1,0.8,1.6,2,1.6,3.7v12.4
	l2.7,1.3v0.7h-9v-0.7l3-1.3V11.1c0-1.2-0.4-2.2-1.2-2.8c-0.8-0.6-1.8-1-3-1c-0.8,0-1.6,0.1-2.5,0.4c-0.9,0.3-1.6,0.6-2.1,1.1v12.8
	l3,1.3v0.7H42.8z"/>
<path class="st0" d="M74,24c-1.2,0-2.3-0.4-3.2-1.1c-0.9-0.7-1.3-1.8-1.3-3.1V6.6h-3.3c-0.1,0-0.2-0.1-0.2-0.2c0-0.1,0-0.1,0.1-0.1
	l3.5-1.7l2.9-4.6c0,0,0.1-0.1,0.1-0.1c0.1,0,0.2,0.1,0.2,0.2v4.5h5.6v2h-5.6v12.5c0,0.7,0.3,1.3,1,1.6c0.6,0.3,1.4,0.5,2.3,0.5
	c0.5,0,1,0,1.5-0.1c0.5-0.1,0.9-0.1,1.2-0.2h0.1v0.4c-0.3,0.6-0.8,1.2-1.7,1.8C76.4,23.7,75.4,24,74,24z"/>
<path class="st0" d="M91.5,24c-1.9,0-3.5-0.4-4.9-1.3c-1.4-0.9-2.5-2-3.2-3.5c-0.8-1.5-1.1-3.2-1.1-5.1s0.4-3.6,1.1-5.1
	c0.8-1.5,1.9-2.7,3.2-3.5c1.4-0.9,3-1.3,4.9-1.3c1.9,0,3.5,0.4,4.8,1.3c1.4,0.9,2.5,2,3.2,3.5c0.8,1.5,1.2,3.2,1.2,5.1
	s-0.4,3.6-1.2,5.1c-0.8,1.5-1.8,2.7-3.2,3.5C95,23.6,93.4,24,91.5,24z M92.1,22.2c1.1,0,2-0.4,2.8-1.1c0.7-0.7,1.3-1.6,1.6-2.7
	c0.3-1.1,0.5-2.3,0.5-3.5c0-1.5-0.2-2.9-0.6-4.3c-0.4-1.4-1-2.5-1.9-3.4C93.6,6.4,92.4,6,91,6c-1.2,0-2.1,0.4-2.8,1.1
	c-0.7,0.7-1.3,1.6-1.6,2.7c-0.3,1.1-0.5,2.3-0.5,3.5c0,1.5,0.2,2.9,0.6,4.3c0.4,1.4,1.1,2.5,2,3.4C89.6,21.8,90.7,22.2,92.1,22.2z"
	/>
<path class="st0" d="M112.4,24c-1.7,0-3-0.4-4.1-1.2c-1-0.8-1.6-2.1-1.6-3.7V7c0-0.2-0.1-0.5-0.3-0.6l-2.1-1
	c-0.1-0.1-0.2-0.2-0.2-0.4c0-0.2,0.2-0.4,0.4-0.4h5c0.3,0,0.6,0.3,0.6,0.6v11.8c0,1.2,0.4,2.2,1.1,2.8c0.8,0.6,1.8,1,3,1
	c0.8,0,1.6-0.1,2.5-0.4c0.9-0.3,1.7-0.6,2.2-1.1V7c0-0.2-0.1-0.5-0.4-0.6l-2.4-1C116.1,5.3,116,5.2,116,5c0-0.2,0.2-0.4,0.4-0.4h5.3
	c0.3,0,0.6,0.3,0.6,0.6v16c0,0.3,0.2,0.5,0.4,0.6l2.3,1c0.2,0.1,0.2,0.2,0.2,0.4c0,0.2-0.2,0.4-0.4,0.4h-5.3c-0.3,0-0.6-0.3-0.6-0.6
	v-2h-0.2c-1.1,1.1-2.1,1.9-3.1,2.4C114.6,23.8,113.6,24,112.4,24z"/>
<path class="st0" d="M129.1,23.6c-0.2,0-0.4-0.2-0.4-0.4c0-0.2,0.1-0.3,0.2-0.4l2.1-1.1c0.2-0.1,0.3-0.3,0.3-0.6V9.3
	c0-0.2-0.1-0.4-0.2-0.5l-2.2-1.9c-0.1-0.1-0.1-0.1-0.1-0.2c0-0.1,0.1-0.2,0.2-0.2l5-2.2c0,0,0.1,0,0.1,0c0.1,0,0.2,0.1,0.2,0.2
	l0.4,3.4h0.2c0.6-1,1.2-1.8,1.8-2.3c0.6-0.5,1.1-0.9,1.6-1c0.5-0.2,1-0.3,1.4-0.3c0.2,0,0.5,0,0.8,0.1c0.3,0.1,0.6,0.2,0.8,0.3
	c0.3,0.1,0.6,0.3,0.8,0.5c0.3,0.2,0.4,0.4,0.4,0.7c0,0.3-0.1,0.5-0.2,0.8l-0.8,2.1h-0.3L139.5,8c-0.3-0.1-0.6-0.2-0.9-0.3
	c-0.3,0-0.6,0-0.8,0c-1.2,0-2.2,0.6-3,1.8v11.7c0,0.2,0.1,0.5,0.4,0.6l2.4,1.1c0.1,0.1,0.2,0.2,0.2,0.4c0,0.2-0.2,0.4-0.4,0.4H129.1
	z"/>
</svg>
